<svg width="600" height="600"><g transform="translate(300, 300)"><circle r="280" fill="#FFD700" stroke="black" stroke-width="2"></circle><line x1="-80.48588338551468" y1="257.7247030760795" x2="-83.46684202942264" y2="267.27006244926764" stroke="black" stroke-width="2"></line><text transform="translate(-74.52396609769878, 238.63398432970322) rotate(197.34327216324735)" text-anchor="middle" dominant-baseline="middle" font-size="28px" font-family="Gideon Roman">II</text><line x1="-128.45733129874932" y1="237.48413428185756" x2="-133.21501023574004" y2="246.2798429589634" stroke="black" stroke-width="2"></line><text transform="translate(-118.9419734247679, 219.8927169276459) rotate(208.4093592903793)" text-anchor="middle" dominant-baseline="middle" font-size="28px" font-family="Gideon Roman">III</text><line x1="-184.59929288457298" y1="197.03578625852626" x2="-191.43630373214975" y2="204.333407971805" stroke="black" stroke-width="2"></line><text transform="translate(-170.92527118941942, 182.44054283196874) rotate(223.13354025693533)" text-anchor="middle" dominant-baseline="middle" font-size="28px" font-family="Gideon Roman">IV</text><line x1="-241.94192441986317" y1="119.85034504753511" x2="-250.90273643541366" y2="124.28924671596234" stroke="black" stroke-width="2"></line><text transform="translate(-224.0203003887622, 110.97254171068066) rotate(243.64764619723795)" text-anchor="middle" dominant-baseline="middle" font-size="28px" font-family="Gideon Roman">V</text><line x1="-270" y1="-3.3065463576978534e-14" x2="-280" y2="-3.429011037612589e-14" stroke="black" stroke-width="2"></line><text transform="translate(-250, -3.061616997868383e-14) rotate(-90)" text-anchor="middle" dominant-baseline="middle" font-size="28px" font-family="Gideon Roman">VI</text><line x1="-241.9419244198632" y1="-119.85034504753501" x2="-250.9027364354137" y2="-124.28924671596224" stroke="black" stroke-width="2"></line><text transform="translate(-224.02030038876222, -110.97254171068056) rotate(-63.647646197237975)" text-anchor="middle" dominant-baseline="middle" font-size="28px" font-family="Gideon Roman">VII</text><line x1="-184.5992928845729" y1="-197.03578625852634" x2="-191.43630373214964" y2="-204.3334079718051" stroke="black" stroke-width="2"></line><text transform="translate(-170.92527118941933, -182.44054283196883) rotate(-43.133540256935305)" text-anchor="middle" dominant-baseline="middle" font-size="28px" font-family="Gideon Roman">VIII</text><line x1="-128.45733129874932" y1="-237.48413428185756" x2="-133.21501023574004" y2="-246.2798429589634" stroke="black" stroke-width="2"></line><text transform="translate(-118.9419734247679, -219.8927169276459) rotate(-28.409359290379285)" text-anchor="middle" dominant-baseline="middle" font-size="28px" font-family="Gideon Roman">IX</text><line x1="-80.48588338551468" y1="-257.7247030760795" x2="-83.46684202942264" y2="-267.27006244926764" stroke="black" stroke-width="2"></line><text transform="translate(-74.52396609769878, -238.63398432970322) rotate(-17.34327216324735)" text-anchor="middle" dominant-baseline="middle" font-size="28px" font-family="Gideon Roman">X</text><line x1="-38.728106129174755" y1="-267.2080346764434" x2="-40.1624804302553" y2="-277.1046285533487" stroke="black" stroke-width="2"></line><text transform="translate(-35.859357527013664, -247.41484692263276) rotate(-8.246804683724946)" text-anchor="middle" dominant-baseline="middle" font-size="28px" font-family="Gideon Roman">XI</text><line x1="1.6532731788489267e-14" y1="-270" x2="1.7145055188062946e-14" y2="-280" stroke="black" stroke-width="2"></line><text transform="translate(1.5308084989341916e-14, -250) rotate(0)" text-anchor="middle" dominant-baseline="middle" font-size="28px" font-family="Gideon Roman">XII</text><line x1="38.72810612917485" y1="-267.2080346764434" x2="40.1624804302554" y2="-277.1046285533487" stroke="black" stroke-width="2"></line><text transform="translate(35.85935752701375, -247.41484692263276) rotate(8.246804683724946)" text-anchor="middle" dominant-baseline="middle" font-size="28px" font-family="Gideon Roman">I</text><line x1="80.48588338551471" y1="-257.72470307607944" x2="83.46684202942266" y2="-267.2700624492676" stroke="black" stroke-width="2"></line><text transform="translate(74.5239660976988, -238.6339843297032) rotate(17.34327216324735)" text-anchor="middle" dominant-baseline="middle" font-size="28px" font-family="Gideon Roman">II</text><line x1="128.45733129874935" y1="-237.48413428185756" x2="133.21501023574007" y2="-246.2798429589634" stroke="black" stroke-width="2"></line><text transform="translate(118.94197342476792, -219.8927169276459) rotate(28.409359290379292)" text-anchor="middle" dominant-baseline="middle" font-size="28px" font-family="Gideon Roman">III</text><line x1="184.59929288457298" y1="-197.0357862585263" x2="191.43630373214975" y2="-204.33340797180503" stroke="black" stroke-width="2"></line><text transform="translate(170.92527118941942, -182.44054283196877) rotate(43.13354025693531)" text-anchor="middle" dominant-baseline="middle" font-size="28px" font-family="Gideon Roman">IV</text><line x1="241.9419244198632" y1="-119.85034504753501" x2="250.9027364354137" y2="-124.28924671596224" stroke="black" stroke-width="2"></line><text transform="translate(224.02030038876222, -110.97254171068056) rotate(63.64764619723796)" text-anchor="middle" dominant-baseline="middle" font-size="28px" font-family="Gideon Roman">V</text><line x1="270" y1="0" x2="280" y2="0" stroke="black" stroke-width="2"></line><text transform="translate(250, 0) rotate(90)" text-anchor="middle" dominant-baseline="middle" font-size="28px" font-family="Gideon Roman">VI</text><line x1="241.94192441986317" y1="119.85034504753506" x2="250.90273643541366" y2="124.28924671596228" stroke="black" stroke-width="2"></line><text transform="translate(224.0203003887622, 110.9725417106806) rotate(116.35235380276205)" text-anchor="middle" dominant-baseline="middle" font-size="28px" font-family="Gideon Roman">VII</text><line x1="184.59929288457303" y1="197.03578625852623" x2="191.4363037321498" y2="204.33340797180497" stroke="black" stroke-width="2"></line><text transform="translate(170.92527118941948, 182.4405428319687) rotate(136.86645974306467)" text-anchor="middle" dominant-baseline="middle" font-size="28px" font-family="Gideon Roman">VIII</text><line x1="128.4573312987494" y1="237.48413428185754" x2="133.21501023574012" y2="246.27984295896337" stroke="black" stroke-width="2"></line><text transform="translate(118.94197342476798, 219.89271692764586) rotate(151.5906407096207)" text-anchor="middle" dominant-baseline="middle" font-size="28px" font-family="Gideon Roman">IX</text><line x1="80.48588338551471" y1="257.72470307607944" x2="83.46684202942266" y2="267.2700624492676" stroke="black" stroke-width="2"></line><text transform="translate(74.5239660976988, 238.6339843297032) rotate(162.65672783675265)" text-anchor="middle" dominant-baseline="middle" font-size="28px" font-family="Gideon Roman">X</text><path d="M 0 0 L 0 -164.8518862589969 Q 4.636204215472384 -152.85740200050708 10 -164.8518862589969 Z" fill="black" stroke="black" stroke-width="2"></path><path d="M 0 0 L 0 -164.8518862589969 Q 118.31473186413326 -214.7998503628087 253.99823819423275 -296.2807444533883 Z" fill="rgba(0, 0, 0, 0.25)"></path></g></svg>